<svg xmlns="http://www.w3.org/2000/svg" xmlns:xlink="http://www.w3.org/1999/xlink" width="709.021" height="384.514" viewBox="7.989 -20.757 709.021 384.514">
<title id="uniqueTitleID">BigDayMovies - logo</title><defs><path id="A" d="M135.87 58.052a8.58 8.58 0 0 0 6.796 8.391c-.194 2.007-.97 8.36-4.07 22.13-4.08 18.132-11.56 22.44-18.358 22.44s-9.066-3.476-16.093-11.862c-6.44-7.688-11.03-17.726-11.75-19.345 2.124-1.265 3.552-3.578 3.552-6.23 0-4.005-3.248-7.25-7.253-7.25s-7.253 3.247-7.253 7.25 3.25 7.253 7.253 7.253c.744 0 1.46-.113 2.137-.32.222 1.432 1.156 6.06 2.813 17.282 2.04 13.824-1.36 18.81-5.44 21.757s-13.975-2.644-18.963-7.403-7.706-10.2-7.706-10.2l-.17.123c.98-.994 1.587-2.356 1.587-3.863 0-3.035-2.46-5.496-5.495-5.496a5.5 5.5 0 0 0-5.496 5.496c0 3.036 2.46 5.496 5.496 5.496.902 0 1.752-.222 2.505-.608.248.325 11.2 13.77 18.778 28.268 7.63 14.582 9.48 27.73 9.48 27.73l112.645.6s1.36-12.05 8.99-26.63c7.587-14.496 18.833-29.642 19.08-29.967a5.47 5.47 0 0 0 2.505.608c3.036 0 5.497-2.46 5.497-5.496a5.5 5.5 0 0 0-5.497-5.496 5.5 5.5 0 0 0-5.496 5.496c0 1.506.606 2.87 1.588 3.863l-.17-.123s-2.72 5.44-7.706 10.2-14.884 10.35-18.964 7.403-7.48-7.934-5.438-21.757l2.812-17.282c.677.208 1.393.32 2.137.32a7.25 7.25 0 1 0 0-14.504c-4.006 0-7.254 3.247-7.254 7.25 0 2.652 1.43 4.965 3.553 6.23-.72 1.62-5.308 11.657-11.75 19.345-7.026 8.386-9.292 11.862-16.093 11.862s-14.278-4.308-18.358-22.44c-3.1-13.77-3.874-20.124-4.068-22.13 3.88-.82 6.797-4.264 6.797-8.39a8.58 8.58 0 0 0-8.579-8.579c-4.738 0-8.582 3.84-8.582 8.58"/></defs><clipPath id="B"><use xlink:href="#A"/></clipPath><linearGradient id="C" gradientUnits="userSpaceOnUse" x1="144.479" y1="159.69" x2="144.479" y2="49.513"><stop offset="0" stop-color="#fbdd00"/><stop offset="1" stop-color="#dbbe00"/></linearGradient><path clip-path="url(#B)" fill="url(#C)" d="M51.96 49.474h184.975v110.218H51.96z"/><defs><path id="D" d="M56.755 217.16l-.04-48.05c-.075-2.04 2.872-3.172 4.836-1.813l19.756 13.525c.95.682 1.505.966 1.548 2.327.184 5.728.198 15.416-.115 21.13-.098 1.77-1.118 2.237-2.54 3.286-3.583 2.646-12.475 7.962-18.65 12.028-.684.45-1.53.75-2.323.75-1.31 0-2.472-.83-2.472-3.182m50.52 9.438c-8.06-.02-11.444-3.74-11.462-11.853l.114-41.23c.073-8.608 3.15-12.76 11.747-12.77l71.59-.001c10.89 0 13.15 3.815 13.15 13.384l.098 39.873c0 9.18-2.754 12.603-13.195 12.603l-34.115.02-37.93-.025M83.84 167.295c-2.65-1.762-10.546-7.265-17.68-11.698-3.02-1.877-9.7-1.296-12.75-1.296-6.156 0-9.44 4.985-9.44 11.22l.136 57.344c0 4.872 2.3 9.935 9.364 9.935 3.848 0 10.783.55 12.7-.813 6.077-4.33 13.828-9.3 16.735-11.22 3.813 11.995 11.266 18.538 23.218 18.68l74.307.02c15.082 0 24.125-9.126 24.35-22.232l.147-45.955c0-8.213-1.2-12.395-10.473-16.524-13.05-5.817-39.287-6.32-50.167-6.32-56.057-.001-58.587 10.34-60.438 18.86"/></defs><clipPath id="E"><use xlink:href="#D"/></clipPath><linearGradient id="F" gradientUnits="userSpaceOnUse" x1="124.627" y1="292.374" x2="124.627" y2="152.84"><stop offset="0" stop-color="#b14bd9"/><stop offset="1" stop-color="#7c089e"/></linearGradient><path clip-path="url(#E)" fill="url(#F)" d="M43.968 148.435H205.04v91.353H43.968z"/><defs><path id="G" d="M129.206 242.35c0 3.69 7.62 6.272 15.242 6.272s15.242-2.555 15.242-6.272h-30.484z"/></defs><clipPath id="H"><use xlink:href="#G"/></clipPath><linearGradient id="I" gradientUnits="userSpaceOnUse" x1="144.571" y1="292.234" x2="144.571" y2="152.91"><stop offset="0" stop-color="#b14bd9"/><stop offset="1" stop-color="#7c089e"/></linearGradient><path clip-path="url(#H)" fill="url(#I)" d="M129.206 242.35H159.7v6.272h-30.484z"/><defs><path id="J" d="M142.645 291.75c.028.277.4 1.104 1.56 1.104 1.264 0 1.677-.82 1.703-1.1 1.153-12.553 1.532-27.3 2.72-40.283-1.36.166-2.77.254-4.18.254-1.607 0-3.2-.12-4.747-.337 1.275 12.758 1.688 27.836 2.943 40.372"/></defs><clipPath id="K"><use xlink:href="#J"/></clipPath><linearGradient id="L" gradientUnits="userSpaceOnUse" x1="144.252" y1="293.124" x2="144.252" y2="153.562"><stop offset="0" stop-color="#b14bd9"/><stop offset="1" stop-color="#7c089e"/></linearGradient><path clip-path="url(#K)" fill="url(#L)" d="M139.7 251.38h8.928v41.477H139.7z"/><defs><path id="M" d="M104.446 290.6c-.346.616.137 1.04.622 1.302.558.3 1.32.553 1.854-.133l31.615-40.584c-4.038-.72-6.113-1.43-8.994-3.346-8.003 14.253-17.28 28.844-25.097 42.76"/></defs><clipPath id="N"><use xlink:href="#M"/></clipPath><linearGradient id="O" gradientUnits="userSpaceOnUse" x1="121.432" y1="293.054" x2="121.432" y2="153.52"><stop offset="0" stop-color="#b14bd9"/><stop offset="1" stop-color="#7c089e"/></linearGradient><path clip-path="url(#N)" fill="url(#O)" d="M104.1 247.85h34.437v44.615H104.1z"/><defs><path id="P" d="M150.254 251.195l31.613 40.584c.534.686 1.298.432 1.856.133.483-.26.966-.686.62-1.302-7.816-13.917-17.094-28.51-25.097-42.76-2.882 1.916-4.955 2.626-8.993 3.346"/></defs><clipPath id="Q"><use xlink:href="#P"/></clipPath><linearGradient id="R" gradientUnits="userSpaceOnUse" x1="167.516" y1="293.054" x2="167.516" y2="153.52"><stop offset="0" stop-color="#b14bd9"/><stop offset="1" stop-color="#7c089e"/></linearGradient><path clip-path="url(#Q)" fill="url(#R)" d="M150.254 247.85H184.7v44.615h-34.436z"/><path d="M278.566 166.897v-75.76h24.16c4.65 0 8.66.458 12.027 1.375s6.132 2.22 8.3 3.912 3.77 3.764 4.8 6.212 1.56 5.208 1.56 8.275a16.79 16.79 0 0 1-.873 5.392c-.58 1.728-1.463 3.33-2.644 4.812s-2.662 2.8-4.44 3.965-3.868 2.115-6.265 2.855c5.534 1.093 9.7 3.085 12.53 5.974s4.23 6.698 4.23 11.42c0 3.208-.592 6.132-1.77 8.776s-2.9 4.917-5.18 6.82-5.058 3.376-8.354 4.414-7.058 1.56-11.287 1.56h-26.804v-.002zm10.257-41.82h13.534c2.9 0 5.392-.317 7.508-.952s3.867-1.515 5.26-2.644 2.422-2.493 3.093-4.098 1.004-3.357 1.004-5.26c0-4.44-1.34-7.7-4.02-9.78s-6.838-3.12-12.477-3.12H288.82l.001 25.854zm0 7.295v26.382h16.4c2.926 0 5.438-.335 7.534-1.005s3.825-1.612 5.18-2.828a10.96 10.96 0 0 0 2.987-4.336c.633-1.676.952-3.516.952-5.525 0-3.913-1.385-7.005-4.15-9.278s-6.952-3.4-12.556-3.4h-16.336zm70.315 34.525H348.88v-75.76h10.258v75.76zm54.082-7.454c2.044 0 3.922-.096 5.632-.3a35.53 35.53 0 0 0 4.837-.872 32.86 32.86 0 0 0 4.283-1.401l4.018-1.876v-16.708h-11.738c-.67 0-1.207-.192-1.6-.58a1.9 1.9 0 0 1-.607-1.428v-5.816h23.26v29.078c-1.9 1.375-3.885 2.573-5.945 3.595s-4.266 1.878-6.6 2.565-4.856 1.198-7.534 1.533-5.585.5-8.723.5c-5.5 0-10.54-.942-15.122-2.83s-8.53-4.528-11.843-7.93-5.895-7.48-7.744-12.24-2.774-9.99-2.774-15.7c0-5.78.906-11.05 2.723-15.808s4.405-8.837 7.772-12.24 7.436-6.035 12.212-7.903 10.125-2.802 16.047-2.802c2.994 0 5.778.22 8.353.66s4.96 1.076 7.163 1.903 4.237 1.833 6.106 3.014a37.48 37.48 0 0 1 5.236 3.992l-2.9 4.652c-.6.952-1.374 1.427-2.325 1.427-.563 0-1.183-.193-1.85-.582-.882-.493-1.87-1.092-2.96-1.797s-2.424-1.382-4-2.035-3.42-1.208-5.552-1.665-4.66-.688-7.588-.688c-4.264 0-8.124.696-11.576 2.088s-6.4 3.383-8.83 5.974-4.3 5.728-5.604 9.4-1.956 7.816-1.956 12.397c0 4.794.68 9.067 2.035 12.82s3.27 6.937 5.736 9.544 5.394 4.6 8.777 5.974 7.115 2.063 11.203 2.063zm129.9-30.4c0 5.675-.898 10.837-2.696 15.5s-4.334 8.636-7.614 11.948-7.206 5.88-11.788 7.693-9.658 2.723-15.227 2.723h-28.338v-75.76h28.338c5.568 0 10.645.908 15.227 2.723s8.5 4.388 11.788 7.718 5.816 7.322 7.614 11.975 2.696 9.817 2.696 15.5zm-10.522 0c0-4.653-.633-8.812-1.9-12.477s-3.067-6.768-5.394-9.306-5.146-4.475-8.46-5.816-6.997-2-11.05-2h-18.03v59.16h18.03c4.052 0 7.736-.67 11.05-2s6.133-3.27 8.46-5.788 4.123-5.612 5.394-9.28 1.9-7.823 1.9-12.476zm84.695 37.854h-7.93c-.918 0-1.658-.23-2.222-.688a4.24 4.24 0 0 1-1.27-1.744l-7.084-18.292h-33.995l-7.083 18.292c-.248.634-.67 1.198-1.27 1.7s-1.34.74-2.222.74h-7.93l30.296-75.76h10.413l30.297 75.762zM567.65 138.77h28.284l-11.895-30.822c-.775-1.904-1.532-4.283-2.272-7.138l-1.14 3.992-1.085 3.198-11.893 30.77zm79.83-2.008v30.135h-10.204v-30.135L609.52 91.137h8.987c.916 0 1.64.23 2.17.688s.984 1.022 1.373 1.7l17.342 29.447 1.77 3.5 1.295 3.225 1.27-3.277a28.65 28.65 0 0 1 1.744-3.437l17.3-29.447c.315-.563.748-1.102 1.295-1.612s1.26-.767 2.142-.767h9.094l-27.8 45.624z" fill="#f0d000"/><path d="M314.068 237.05l1.876 4.444 1.903-4.526 2.063-4.26 19.773-38.953c.353-.67.714-1.188 1.085-1.56a3.51 3.51 0 0 1 1.242-.818c.458-.18.98-.267 1.56-.267h15.676v76.98h-15.754v-44.307l.315-6.98-20.408 39.6c-.635 1.232-1.5 2.167-2.564 2.8s-2.3.952-3.674.952h-2.432c-1.375 0-2.6-.315-3.674-.952s-1.93-1.566-2.565-2.8l-20.513-39.652.316 3.673.106 3.357v44.307h-15.755V191.1h15.676c.582 0 1.102.087 1.56.267a3.57 3.57 0 0 1 1.243.818c.37.37.73.892 1.085 1.56l19.825 39.112 2.034 4.183zm133.892-7.503c0 5.568-.962 10.75-2.883 15.542s-4.625 8.96-8.115 12.505-7.7 6.317-12.6 8.326-10.37 3.013-16.363 3.013-11.454-1.005-16.4-3.013-9.155-4.784-12.662-8.326-6.222-7.7-8.142-12.505-2.88-9.975-2.88-15.542.957-10.75 2.88-15.543 4.632-8.952 8.142-12.478 7.727-6.3 12.662-8.3 10.396-3.014 16.4-3.014 11.447 1.014 16.363 3.04 9.12 4.803 12.6 8.325 6.195 7.685 8.115 12.48 2.883 9.958 2.883 15.492zm-18.292 0c0-3.807-.494-7.235-1.48-10.284s-2.404-5.63-4.256-7.745-4.116-3.734-6.793-4.863-5.73-1.7-9.148-1.7c-3.453 0-6.528.564-9.225 1.7s-4.97 2.75-6.82 4.863-3.27 4.697-4.255 7.745-1.48 6.478-1.48 10.284c0 3.84.492 7.285 1.48 10.334s2.404 5.63 4.255 7.746 4.124 3.727 6.82 4.837 5.77 1.666 9.225 1.666c3.42 0 6.47-.556 9.148-1.666s4.943-2.723 6.793-4.837 3.27-4.696 4.256-7.746 1.48-6.493 1.48-10.334zm17.76-38.49h14.38c1.55 0 2.818.354 3.808 1.058s1.7 1.64 2.114 2.804l14.9 41.236 2.034 5.87 1.93 6.662 1.72-6.662 1.93-5.87 14.803-41.236c.352-.986 1.038-1.878 2.063-2.67s2.273-1.2 3.752-1.2h14.488l-30.877 77.032h-16.178l-30.878-77.034zM551.263 268.1h-17.975v-77.03h17.975v77.03zm63.865-77.032v13.748h-31.613v17.973h24.214V236h-24.214v18.346h31.613V268.1h-49.6v-77.03h49.6zm53.08 15.65c-.527.846-1.082 1.482-1.664 1.903s-1.33.634-2.247.634c-.812 0-1.685-.254-2.617-.766l-3.173-1.72c-1.18-.635-2.53-1.208-4.043-1.718s-3.243-.77-5.182-.77c-3.348 0-5.843.714-7.48 2.142s-2.458 3.357-2.458 5.8c0 1.55.493 2.837 1.48 3.86s2.282 1.903 3.887 2.644 3.436 1.42 5.498 2.035l6.317 2.063a56.75 56.75 0 0 1 6.319 2.67c2.063 1.022 3.893 2.326 5.497 3.912s2.898 3.517 3.887 5.8 1.48 5.013 1.48 8.22c0 3.56-.616 6.892-1.85 9.994a23.42 23.42 0 0 1-5.366 8.115c-2.345 2.3-5.235 4.123-8.67 5.445s-7.34 1.98-11.7 1.98c-2.4 0-4.838-.246-7.324-.738a43.53 43.53 0 0 1-7.216-2.089c-2.327-.897-4.513-1.965-6.556-3.2s-3.824-2.606-5.34-4.12l5.288-8.355c.387-.635.934-1.145 1.638-1.532a4.63 4.63 0 0 1 2.275-.582c1.057 0 2.123.335 3.197 1.005l3.65 2.22c1.355.812 2.915 1.553 4.68 2.22s3.84 1.004 6.237 1.004c3.24 0 5.763-.714 7.562-2.14s2.694-3.692 2.694-6.794c0-1.797-.493-3.26-1.48-4.388s-2.282-2.063-3.885-2.802-3.43-1.394-5.474-1.956a161.25 161.25 0 0 1-6.29-1.878c-2.15-.688-4.247-1.533-6.292-2.538a19.8 19.8 0 0 1-5.47-3.965c-1.602-1.64-2.9-3.684-3.887-6.133s-1.48-5.47-1.48-9.067c0-2.9.58-5.7 1.743-8.458s2.873-5.2 5.13-7.35 5.024-3.867 8.3-5.154 7.033-1.93 11.264-1.93c2.36 0 4.66.186 6.898.555s4.36.918 6.372 1.64a34.83 34.83 0 0 1 5.63 2.592c1.746 1.005 3.304 2.142 4.678 3.4l-4.44 8.3z" fill="#8403a1"/></svg>