<?xml version="1.0" encoding="utf-8"?>
<!-- Generator: Adobe Illustrator 19.0.0, SVG Export Plug-In . SVG Version: 6.00 Build 0)  -->
<svg version="1.1" xmlns="http://www.w3.org/2000/svg" xmlns:xlink="http://www.w3.org/1999/xlink" x="0px" y="0px"
	 viewBox="0 0 141.3 209.4" style="enable-background:new 0 0 141.3 209.4;" xml:space="preserve">
<style type="text/css">
	.st0{fill:#FFFFFF;}
</style>
<g id="cam_1_">
</g>
<g id="logo-pion">
	<g>
		<path class="st0" d="M118.4,31.3c-1.6,0-2.8,1.3-2.8,2.8c0,0.8,0.3,1.5,0.8,2l-0.1-0.1c0,0-1.4,2.8-3.9,5.2
			c-2.5,2.4-7.6,5.3-9.7,3.8c-2.1-1.5-3.8-4.1-2.8-11.1c0.8-5.7,1.3-8.1,1.4-8.8c0.3,0.1,0.7,0.2,1.1,0.2c2,0,3.7-1.7,3.7-3.7
			s-1.7-3.7-3.7-3.7s-3.7,1.7-3.7,3.7c0,1.4,0.7,2.5,1.8,3.2c-0.4,0.8-2.7,6-6,9.9c-3.6,4.3-4.7,6.1-8.2,6.1s-7.3-2.2-9.4-11.5
			c-1.6-7-2-10.3-2.1-11.3c2-0.4,3.5-2.2,3.5-4.3c0-2.4-2-4.4-4.4-4.4c-2.4,0-4.4,2-4.4,4.4c0,2.1,1.5,3.9,3.5,4.3
			c-0.1,1-0.5,4.3-2.1,11.3c-2.1,9.3-5.9,11.5-9.4,11.5c-3.5,0-4.6-1.8-8.2-6.1c-3.3-3.9-5.6-9.1-6-9.9c1.1-0.6,1.8-1.8,1.8-3.2
			c0-2-1.7-3.7-3.7-3.7c-2,0-3.7,1.7-3.7,3.7s1.7,3.7,3.7,3.7c0.4,0,0.7-0.1,1.1-0.2c0.1,0.7,0.6,3.1,1.4,8.8
			c1,7.1-0.7,9.6-2.8,11.1c-2.1,1.5-7.1-1.4-9.7-3.8C33,38.8,31.6,36,31.6,36l-0.1,0.1c0.5-0.5,0.8-1.2,0.8-2c0-1.6-1.3-2.8-2.8-2.8
			c-1.6,0-2.8,1.3-2.8,2.8c0,1.6,1.3,2.8,2.8,2.8c0.5,0,0.9-0.1,1.3-0.3c0.1,0.2,5.7,7,9.6,14.4c3.4,6.4,4.5,12.3,4.8,13.8
			c-1.5,1.5-1.9,3.1-2.2,4.6c-1.4-0.9-5.4-3.7-9-6c-1.5-1-5-0.7-6.5-0.7c-3.1,0-4.8,2.5-4.8,5.7c0,10.2,0,19.1,0.1,29.3
			c0,2.5,1.2,5.1,4.8,5.1c2,0,5.5,0.3,6.5-0.4c3.1-2.2,7.1-4.8,8.5-5.7c1.9,6.1,5.8,9.5,11.9,9.5c12.7,0.2,25.3,0.2,38,0
			c7.7,0,12.3-4.7,12.4-11.4c0.1-7.7,0.1-15.8,0.1-23.5c0-2.9-0.3-4.8-2-6.4c0.2-1.6,1.3-6.9,4.5-13.1c3.9-7.4,9.6-15.1,9.7-15.3
			c0.4,0.2,0.8,0.3,1.3,0.3c1.6,0,2.8-1.3,2.8-2.8C121.2,32.6,119.9,31.3,118.4,31.3z M42.4,88.3c0,0.9-0.6,1.1-1.3,1.7
			c-1.8,1.4-6.4,4.1-9.5,6.1c-0.9,0.6-2.5,0.7-2.5-1.2c0-3.7,0-22.8,0-24.5c0-1,1.5-1.6,2.5-0.9c2,1.4,8.3,5.6,10.1,6.9
			c0.5,0.3,0.8,0.5,0.8,1.2C42.5,80.4,42.6,85.4,42.4,88.3z M91.7,99.7c-6.1,0-30.6,0-36.8,0c-4.1,0-5.8-1.9-5.9-6.1
			c0-7,0-14,0.1-21.1c0-4.4,1.6-6.5,6-6.5c12.2,0,24.4,0,36.6,0c5.6,0,6.7,1.9,6.7,6.8c0,6.8,0,13.6,0,20.4
			C98.5,98,97.1,99.7,91.7,99.7z"/>
		<path class="st0" d="M73.9,111c3.9,0,7.8-1.3,7.8-3.2c-4.9,0-10.4,0-15.6,0C66.1,109.6,70,111,73.9,111z"/>
		<path class="st0" d="M71.5,112.4c0.7,6.5,0.9,14.2,1.5,20.6c0,0.1,0.2,0.6,0.8,0.6c0.6,0,0.9-0.4,0.9-0.6c0.6-6.4,0.8-14,1.4-20.6
			c-0.7,0.1-1.4,0.1-2.1,0.1C73.1,112.5,72.3,112.5,71.5,112.4z"/>
		<path class="st0" d="M53.5,132.4c-0.2,0.3,0.1,0.5,0.3,0.7c0.3,0.2,0.7,0.3,0.9-0.1c5.1-6.6,10.9-14,16.2-20.7
			c-2.1-0.4-3.1-0.7-4.6-1.7C62.2,117.8,57.5,125.3,53.5,132.4z"/>
		<path class="st0" d="M81.5,110.6c-1.5,1-2.5,1.3-4.6,1.7c5.3,6.7,11,14.2,16.2,20.7c0.3,0.3,0.7,0.2,0.9,0.1
			c0.2-0.1,0.5-0.3,0.3-0.7C90.3,125.3,85.6,117.8,81.5,110.6z"/>
		<g>
			<path class="st0" d="M10.6,168.9v-23.2H18c1.4,0,2.7,0.1,3.7,0.4c1,0.3,1.9,0.7,2.5,1.2c0.7,0.5,1.2,1.2,1.5,1.9
				c0.3,0.8,0.5,1.6,0.5,2.5c0,0.6-0.1,1.1-0.3,1.7c-0.2,0.5-0.4,1-0.8,1.5c-0.4,0.5-0.8,0.9-1.4,1.2c-0.5,0.4-1.2,0.6-1.9,0.9
				c1.7,0.3,3,0.9,3.8,1.8c0.9,0.9,1.3,2.1,1.3,3.5c0,1-0.2,1.9-0.5,2.7c-0.4,0.8-0.9,1.5-1.6,2.1c-0.7,0.6-1.6,1-2.6,1.4
				c-1,0.3-2.2,0.5-3.5,0.5H10.6z M13.7,156h4.1c0.9,0,1.7-0.1,2.3-0.3c0.6-0.2,1.2-0.5,1.6-0.8c0.4-0.3,0.7-0.8,0.9-1.3
				c0.2-0.5,0.3-1,0.3-1.6c0-1.4-0.4-2.4-1.2-3c-0.8-0.6-2.1-1-3.8-1h-4.3V156z M13.7,158.3v8.1h5c0.9,0,1.7-0.1,2.3-0.3
				c0.6-0.2,1.2-0.5,1.6-0.9s0.7-0.8,0.9-1.3c0.2-0.5,0.3-1.1,0.3-1.7c0-1.2-0.4-2.1-1.3-2.8c-0.8-0.7-2.1-1-3.8-1H13.7z"/>
			<path class="st0" d="M35.3,168.9h-3.1v-23.2h3.1V168.9z"/>
			<path class="st0" d="M51.9,166.6c0.6,0,1.2,0,1.7-0.1c0.5-0.1,1-0.1,1.5-0.3c0.5-0.1,0.9-0.3,1.3-0.4c0.4-0.2,0.8-0.4,1.2-0.6
				v-5.1H54c-0.2,0-0.4-0.1-0.5-0.2c-0.1-0.1-0.2-0.3-0.2-0.4v-1.8h7.1v8.9c-0.6,0.4-1.2,0.8-1.8,1.1s-1.3,0.6-2,0.8
				c-0.7,0.2-1.5,0.4-2.3,0.5c-0.8,0.1-1.7,0.2-2.7,0.2c-1.7,0-3.2-0.3-4.6-0.9c-1.4-0.6-2.6-1.4-3.6-2.4c-1-1-1.8-2.3-2.4-3.8
				c-0.6-1.5-0.9-3.1-0.9-4.8c0-1.8,0.3-3.4,0.8-4.8c0.6-1.5,1.4-2.7,2.4-3.8c1-1,2.3-1.9,3.7-2.4c1.5-0.6,3.1-0.9,4.9-0.9
				c0.9,0,1.8,0.1,2.6,0.2c0.8,0.1,1.5,0.3,2.2,0.6c0.7,0.3,1.3,0.6,1.9,0.9c0.6,0.4,1.1,0.8,1.6,1.2l-0.9,1.4
				c-0.2,0.3-0.4,0.4-0.7,0.4c-0.2,0-0.4-0.1-0.6-0.2c-0.3-0.2-0.6-0.3-0.9-0.6c-0.3-0.2-0.7-0.4-1.2-0.6c-0.5-0.2-1-0.4-1.7-0.5
				c-0.7-0.1-1.4-0.2-2.3-0.2c-1.3,0-2.5,0.2-3.6,0.6s-2,1-2.7,1.8c-0.7,0.8-1.3,1.8-1.7,2.9c-0.4,1.1-0.6,2.4-0.6,3.8
				c0,1.5,0.2,2.8,0.6,3.9c0.4,1.2,1,2.1,1.8,2.9c0.8,0.8,1.7,1.4,2.7,1.8C49.5,166.4,50.6,166.6,51.9,166.6z"/>
			<path class="st0" d="M91.7,157.3c0,1.7-0.3,3.3-0.8,4.7c-0.6,1.4-1.3,2.6-2.3,3.7c-1,1-2.2,1.8-3.6,2.4c-1.4,0.6-3,0.8-4.7,0.8
				h-8.7v-23.2h8.7c1.7,0,3.3,0.3,4.7,0.8c1.4,0.6,2.6,1.3,3.6,2.4c1,1,1.8,2.2,2.3,3.7C91.4,153.9,91.7,155.5,91.7,157.3z
				 M88.5,157.3c0-1.4-0.2-2.7-0.6-3.8c-0.4-1.1-0.9-2.1-1.7-2.9c-0.7-0.8-1.6-1.4-2.6-1.8c-1-0.4-2.1-0.6-3.4-0.6h-5.5v18.1h5.5
				c1.2,0,2.4-0.2,3.4-0.6c1-0.4,1.9-1,2.6-1.8c0.7-0.8,1.3-1.7,1.7-2.8C88.3,160,88.5,158.7,88.5,157.3z"/>
			<path class="st0" d="M114.4,168.9H112c-0.3,0-0.5-0.1-0.7-0.2c-0.2-0.1-0.3-0.3-0.4-0.5l-2.2-5.6H98.3l-2.2,5.6
				c-0.1,0.2-0.2,0.4-0.4,0.5c-0.2,0.2-0.4,0.2-0.7,0.2h-2.4l9.3-23.2h3.2L114.4,168.9z M99.2,160.2h8.7l-3.6-9.5
				c-0.2-0.6-0.5-1.3-0.7-2.2c-0.1,0.4-0.2,0.9-0.3,1.2c-0.1,0.4-0.2,0.7-0.3,1L99.2,160.2z"/>
			<path class="st0" d="M123.6,159.6v9.2h-3.1v-9.2l-8.5-14h2.8c0.3,0,0.5,0.1,0.7,0.2c0.2,0.1,0.3,0.3,0.4,0.5l5.3,9
				c0.2,0.4,0.4,0.7,0.5,1.1c0.1,0.3,0.3,0.7,0.4,1c0.1-0.3,0.2-0.7,0.4-1c0.1-0.3,0.3-0.7,0.5-1.1l5.3-9c0.1-0.2,0.2-0.3,0.4-0.5
				c0.2-0.2,0.4-0.2,0.7-0.2h2.8L123.6,159.6z"/>
			<path class="st0" d="M21.9,190.4c0.2,0.4,0.4,0.9,0.6,1.4c0.2-0.5,0.4-0.9,0.6-1.4c0.2-0.4,0.4-0.9,0.6-1.3l6.1-11.9
				c0.1-0.2,0.2-0.4,0.3-0.5c0.1-0.1,0.2-0.2,0.4-0.3c0.1-0.1,0.3-0.1,0.5-0.1c0.2,0,0.4,0,0.6,0h4.2v23.6h-4.8v-13.6
				c0-0.7,0-1.4,0.1-2.1l-6.3,12.1c-0.2,0.4-0.5,0.7-0.8,0.9s-0.7,0.3-1.1,0.3h-0.7c-0.4,0-0.8-0.1-1.1-0.3
				c-0.3-0.2-0.6-0.5-0.8-0.9l-6.3-12.2c0,0.4,0.1,0.8,0.1,1.1c0,0.4,0,0.7,0,1v13.6H9.2v-23.6h4.2c0.2,0,0.4,0,0.6,0
				c0.2,0,0.3,0,0.5,0.1c0.1,0.1,0.3,0.1,0.4,0.3c0.1,0.1,0.2,0.3,0.3,0.5l6.1,12C21.5,189.5,21.7,189.9,21.9,190.4z"/>
			<path class="st0" d="M62.9,188.1c0,1.7-0.3,3.3-0.9,4.8c-0.6,1.5-1.4,2.7-2.5,3.8c-1.1,1.1-2.4,1.9-3.9,2.6
				c-1.5,0.6-3.2,0.9-5,0.9c-1.8,0-3.5-0.3-5-0.9c-1.5-0.6-2.8-1.5-3.9-2.6c-1.1-1.1-1.9-2.4-2.5-3.8c-0.6-1.5-0.9-3.1-0.9-4.8
				c0-1.7,0.3-3.3,0.9-4.8c0.6-1.5,1.4-2.7,2.5-3.8c1.1-1.1,2.4-1.9,3.9-2.5c1.5-0.6,3.2-0.9,5-0.9c1.8,0,3.5,0.3,5,0.9
				c1.5,0.6,2.8,1.5,3.9,2.6c1.1,1.1,1.9,2.4,2.5,3.8C62.6,184.8,62.9,186.4,62.9,188.1z M57.3,188.1c0-1.2-0.2-2.2-0.5-3.2
				c-0.3-0.9-0.7-1.7-1.3-2.4c-0.6-0.6-1.3-1.1-2.1-1.5c-0.8-0.3-1.8-0.5-2.8-0.5c-1.1,0-2,0.2-2.8,0.5c-0.8,0.3-1.5,0.8-2.1,1.5
				c-0.6,0.6-1,1.4-1.3,2.4c-0.3,0.9-0.5,2-0.5,3.2c0,1.2,0.2,2.2,0.5,3.2c0.3,0.9,0.7,1.7,1.3,2.4c0.6,0.6,1.3,1.1,2.1,1.5
				c0.8,0.3,1.8,0.5,2.8,0.5c1,0,2-0.2,2.8-0.5c0.8-0.3,1.5-0.8,2.1-1.5c0.6-0.6,1-1.4,1.3-2.4C57.2,190.3,57.3,189.3,57.3,188.1z"
				/>
			<path class="st0" d="M62.6,176.3H67c0.5,0,0.9,0.1,1.2,0.3c0.3,0.2,0.5,0.5,0.6,0.9l4.6,12.6c0.2,0.6,0.4,1.2,0.6,1.8
				c0.2,0.6,0.4,1.3,0.6,2c0.2-0.7,0.3-1.4,0.5-2c0.2-0.6,0.4-1.2,0.6-1.8l4.5-12.6c0.1-0.3,0.3-0.6,0.6-0.8
				c0.3-0.2,0.7-0.4,1.2-0.4h4.4l-9.5,23.6h-5L62.6,176.3z"/>
			<path class="st0" d="M94.5,199.9H89v-23.6h5.5V199.9z"/>
			<path class="st0" d="M114.1,176.3v4.2h-9.7v5.5h7.4v4.1h-7.4v5.6h9.7v4.2H98.8v-23.6H114.1z"/>
			<path class="st0" d="M130.3,181.1c-0.2,0.3-0.3,0.5-0.5,0.6c-0.2,0.1-0.4,0.2-0.7,0.2c-0.2,0-0.5-0.1-0.8-0.2
				c-0.3-0.2-0.6-0.3-1-0.5s-0.8-0.4-1.2-0.5c-0.5-0.2-1-0.2-1.6-0.2c-1,0-1.8,0.2-2.3,0.7c-0.5,0.4-0.8,1-0.8,1.8
				c0,0.5,0.2,0.9,0.5,1.2c0.3,0.3,0.7,0.6,1.2,0.8c0.5,0.2,1.1,0.4,1.7,0.6c0.6,0.2,1.3,0.4,1.9,0.6c0.7,0.2,1.3,0.5,1.9,0.8
				c0.6,0.3,1.2,0.7,1.7,1.2c0.5,0.5,0.9,1.1,1.2,1.8c0.3,0.7,0.5,1.5,0.5,2.5c0,1.1-0.2,2.1-0.6,3.1c-0.4,1-0.9,1.8-1.6,2.5
				c-0.7,0.7-1.6,1.3-2.7,1.7c-1.1,0.4-2.3,0.6-3.6,0.6c-0.7,0-1.5-0.1-2.2-0.2c-0.8-0.2-1.5-0.4-2.2-0.6c-0.7-0.3-1.4-0.6-2-1
				c-0.6-0.4-1.2-0.8-1.6-1.3l1.6-2.6c0.1-0.2,0.3-0.4,0.5-0.5c0.2-0.1,0.4-0.2,0.7-0.2c0.3,0,0.7,0.1,1,0.3
				c0.3,0.2,0.7,0.4,1.1,0.7c0.4,0.2,0.9,0.5,1.4,0.7c0.5,0.2,1.2,0.3,1.9,0.3c1,0,1.8-0.2,2.3-0.7c0.6-0.4,0.8-1.1,0.8-2.1
				c0-0.6-0.2-1-0.5-1.3c-0.3-0.3-0.7-0.6-1.2-0.9c-0.5-0.2-1.1-0.4-1.7-0.6c-0.6-0.2-1.3-0.4-1.9-0.6c-0.7-0.2-1.3-0.5-1.9-0.8
				c-0.6-0.3-1.2-0.7-1.7-1.2c-0.5-0.5-0.9-1.1-1.2-1.9c-0.3-0.8-0.5-1.7-0.5-2.8c0-0.9,0.2-1.8,0.5-2.6c0.4-0.8,0.9-1.6,1.6-2.3
				c0.7-0.7,1.5-1.2,2.5-1.6c1-0.4,2.2-0.6,3.5-0.6c0.7,0,1.4,0.1,2.1,0.2c0.7,0.1,1.3,0.3,2,0.5c0.6,0.2,1.2,0.5,1.7,0.8
				c0.5,0.3,1,0.7,1.4,1L130.3,181.1z"/>
		</g>
	</g>
</g>
<g id="logo-poziom">
	<g>
	</g>
	<g>
	</g>
	<g>
	</g>
	<g>
	</g>
	<g>
	</g>
	<g>
	</g>
</g>
</svg>
